<svg width="36" height="36" viewBox="0 0 36 36" fill="none" xmlns="http://www.w3.org/2000/svg">
<circle cx="18" cy="18" r="17.5" stroke="#E5E5E5"/>
<path d="M18.3002 16.7569C19.9259 18.3882 21.4533 19.9325 22.967 21.4552C23.376 21.8668 24.0744 21.835 24.4856 21.4256C24.8981 21.0149 24.8649 20.3803 24.4524 19.9696C22.6176 18.1427 20.7776 16.3107 18.9614 14.5024C18.5712 14.114 17.9405 14.1139 17.5506 14.5026C15.8018 16.2458 13.9965 18.0515 12.1841 19.8493C11.7546 20.2753 11.7197 20.9344 12.1609 21.3485C12.5792 21.7412 13.2723 21.7659 13.6802 21.3622C15.1458 19.912 16.6796 18.383 18.3002 16.7569Z" fill="#E5E5E5"/>
</svg>
