<svg width="32" height="30" viewBox="0 0 32 30" fill="none" xmlns="http://www.w3.org/2000/svg">
<path d="M16.6749 29.9999C14.4208 29.9999 12.2414 29.9999 10.0022 29.9999C10.0022 29.776 10.0022 29.5819 10.0022 29.373C10.0022 22.7749 10.0022 16.162 9.9873 9.56395C9.9873 9.01162 10.1515 8.87727 10.674 8.8922C12.4653 8.92206 14.2566 8.90713 16.0479 8.90713C16.2271 8.90713 16.4211 8.90713 16.645 8.90713C16.645 9.81772 16.645 10.6984 16.645 11.7285C16.8839 11.4896 17.0182 11.3702 17.1526 11.2358C20.0933 8.36973 25.1986 8.11596 28.214 10.6835C29.9605 12.1763 30.7218 14.1617 30.9905 16.371C31.0801 17.1323 31.095 17.8936 31.095 18.6549C31.1099 22.2226 31.095 25.7754 31.095 29.3431C31.095 29.5372 31.095 29.7461 31.095 29.985C28.8708 29.985 26.6914 29.985 24.4224 29.985C24.4224 29.776 24.4224 29.567 24.4224 29.3431C24.4224 25.9993 24.4224 22.6704 24.4224 19.3266C24.4224 18.7445 24.3925 18.1623 24.2731 17.61C23.87 15.5649 22.437 14.4005 20.4217 14.4304C18.4961 14.4602 17.1377 15.6544 16.7794 17.6995C16.6898 18.1772 16.66 18.6698 16.66 19.1475C16.645 22.5361 16.66 25.9396 16.66 29.3282C16.6749 29.5372 16.6749 29.7461 16.6749 29.9999Z" fill="#E5E5E5"/>
<path d="M6.62802 29.9999C4.43366 29.9999 2.25422 29.9999 0.0449219 29.9999C0.0449219 22.9839 0.0449219 15.9829 0.0449219 8.93701C2.23929 8.93701 4.4038 8.93701 6.62802 8.93701C6.62802 15.9381 6.62802 22.9392 6.62802 29.9999Z" fill="#E5E5E5"/>
<path d="M3.44863 5.57822C2.47833 5.54836 1.65731 5.3543 0.970634 4.78705C-0.492277 3.57791 -0.268362 1.38354 1.41846 0.487883C2.59775 -0.139078 3.85167 -0.154006 5.07574 0.398318C6.16546 0.89093 6.79242 2.02543 6.64315 3.10022C6.47894 4.33922 5.56835 5.23488 4.23979 5.48865C3.95617 5.53343 3.65761 5.56329 3.44863 5.57822Z" fill="#E5E5E5"/>
</svg>
